<?xml version="1.0" encoding="UTF-8" standalone="no"?>
<!-- Created with Inkscape (http://www.inkscape.org/) -->

<svg
   width="80mm"
   height="80mm"
   viewBox="0 0 80 80"
   version="1.1"
   id="svg1"
   xml:space="preserve"
   inkscape:version="1.3.2 (091e20ef0f, 2023-11-25, custom)"
   sodipodi:docname="tgo.svg"
   xmlns:inkscape="http://www.inkscape.org/namespaces/inkscape"
   xmlns:sodipodi="http://sodipodi.sourceforge.net/DTD/sodipodi-0.dtd"
   xmlns="http://www.w3.org/2000/svg"
   xmlns:svg="http://www.w3.org/2000/svg"><sodipodi:namedview
     id="namedview1"
     pagecolor="#ffffff"
     bordercolor="#000000"
     borderopacity="0.25"
     inkscape:showpageshadow="2"
     inkscape:pageopacity="0.0"
     inkscape:pagecheckerboard="0"
     inkscape:deskcolor="#d1d1d1"
     inkscape:document-units="mm"
     inkscape:zoom="0.20886696"
     inkscape:cx="-69.422181"
     inkscape:cy="1462.6535"
     inkscape:window-width="2560"
     inkscape:window-height="975"
     inkscape:window-x="0"
     inkscape:window-y="32"
     inkscape:window-maximized="1"
     inkscape:current-layer="g3" /><defs
     id="defs1" /><g
     inkscape:label="Camada 1"
     inkscape:groupmode="layer"
     id="layer1"><g
       id="g3"><g
         id="g14"
         transform="translate(205.45235,-32.648409)"><path
           style="fill:#003b45;fill-opacity:1"
           d="m -170.55372,108.93839 c -0.91458,-0.2615 -1.72826,-0.54084 -1.80818,-0.62076 -0.0799,-0.0799 -0.20988,-0.62671 -0.2888,-1.2151 -0.14264,-1.06348 -0.15618,-1.0747 -2.29286,-1.90023 -1.18215,-0.45673 -3.45273,-1.29764 -5.04573,-1.86867 -1.593,-0.57104 -3.86008,-1.45217 -5.03797,-1.95808 -2.35788,-1.01273 -3.08081,-1.11849 -3.57504,-0.52297 -0.49951,0.60187 -1.54035,0.45746 -3.43738,-0.47692 -1.54786,-0.7624 -1.73687,-0.94343 -1.91283,-1.83214 -0.13719,-0.69287 -0.5903,-1.36691 -1.52357,-2.26646 l -1.32831,-1.28032 -0.0661,-17.84187 c -0.1069,-28.83405 -0.16487,-26.02982 0.5539,-26.79423 l 0.62005,-0.65941 1.36433,0.48886 c 0.75038,0.26888 3.20979,1.15893 5.46536,1.9779 2.25558,0.81897 6.60136,2.3675 9.6573,3.44118 10.01882,3.52003 10.66427,3.77003 11.62437,4.50233 0.5227,0.39868 1.03808,1.03696 1.14528,1.4184 0.10721,0.38143 0.19493,10.27805 0.19493,21.99247 0,17.26663 -0.068,21.49142 -0.35929,22.31551 -0.42038,1.1894 -0.27977,1.38174 1.18381,1.61933 0.98608,0.16008 1.10462,0.11886 1.25315,-0.43579 0.0902,-0.33692 0.16569,-10.81978 0.16767,-23.29523 l 0.004,-22.68264 0.99218,-0.50256 c 1.40811,-0.71322 4.80167,-2.0653 7.73907,-3.08343 1.38244,-0.47917 4.35901,-1.52992 6.61458,-2.335 2.25557,-0.80508 6.06557,-2.08135 8.46667,-2.83615 4.41548,-1.38804 8.46666,-3.05053 8.46666,-3.47448 0,-0.51103 -0.98119,-0.54805 -2.71147,-0.10232 -5.78092,1.4892 -25.83423,8.22872 -29.6289,9.95769 -0.63774,0.29057 -1.00974,0.18805 -3.69738,-1.019 -1.64356,-0.73814 -5.4886,-2.17337 -8.54454,-3.1894 -3.05594,-1.01603 -7.87797,-2.68888 -10.71562,-3.71745 -2.83766,-1.02856 -5.67741,-1.99911 -6.31056,-2.15678 -0.63316,-0.15766 -1.09879,-0.33906 -1.03474,-0.4031 0.19692,-0.19693 16.28022,-5.27179 24.67551,-7.78602 2.47385,-0.74087 6.15572,-1.88663 8.18193,-2.54614 l 3.68403,-1.1991 1.39452,0.68284 c 1.94069,0.95026 1.94796,0.95293 10.8166,3.98299 11.36648,3.88347 13.21144,4.75315 13.87516,6.54052 0.1783,0.48016 0.4387,1.08837 0.57866,1.3516 0.15729,0.2958 0.2477,8.62843 0.23674,21.81723 -0.0196,23.59068 0.0836,22.2089 -1.71447,22.96017 -0.99249,0.41469 -1.20214,0.80288 -1.20214,2.22596 0,0.55236 -0.14882,1.12756 -0.33072,1.27822 -0.18191,0.15066 -1.33251,0.7142 -2.55689,1.25232 l -2.22617,0.97839 -1.02675,-1.07909 -1.02675,-1.07909 -1.50959,0.67221 c -0.83027,0.36971 -4.05246,1.67207 -7.16042,2.89413 -7.40652,2.91227 -7.29342,2.84275 -7.39297,4.54431 -0.0436,0.7448 -0.22573,1.47577 -0.40478,1.62438 -0.4495,0.37305 -4.33365,1.85111 -5.38063,2.04752 -0.63852,0.11979 -1.0635,0.0136 -1.66796,-0.41683 l -0.81112,-0.57757 -1.1372,0.55051 c -1.35727,0.65704 -1.90343,0.66203 -4.08821,0.0374 z m 1.41013,-12.0582 c 0.009,-6.10904 -0.0685,-8.07092 -0.33722,-8.52976 -0.29563,-0.5047 -0.28285,-0.72393 0.0835,-1.43234 0.33103,-0.64013 0.38881,-1.18333 0.24621,-2.31451 -0.18996,-1.50678 -0.21853,-2.46825 -0.15006,-5.04995 0.0533,-2.00921 0.0941,-3.64502 0.12205,-4.8948 l 0.0237,-1.05833 -3.57187,-1.13726 c -1.96453,-0.62549 -4.52438,-1.47785 -5.68854,-1.89414 -3.17001,-1.13354 -13.147,-4.23042 -15.05537,-4.67322 l -0.76787,-0.17817 0.19626,1.69244 c 0.10794,0.93084 0.17986,1.96032 0.15983,2.28775 -0.0333,0.54416 -0.0472,1.67795 -0.0511,4.16718 -8e-4,0.50933 -0.008,1.55112 -0.0168,2.31511 -0.008,0.76398 0.009,1.86531 0.038,2.44739 0.0293,0.58209 -0.0256,1.55522 -0.12199,2.16251 -0.11079,0.69765 -0.0304,1.59871 0.2184,2.4474 0.31024,1.05831 0.32227,1.34322 0.0567,1.34322 -0.5537,0 -0.64818,1.00537 -0.24129,2.56752 0.21055,0.80837 0.44688,1.5734 0.52516,1.70008 0.0783,0.12667 -0.0575,0.23031 -0.30187,0.23031 -0.40099,0 -0.42654,0.30245 -0.26256,3.10886 0.22321,3.8201 0.16341,3.75412 4.8577,5.35944 1.84716,0.63168 4.72769,1.6739 6.40118,2.31604 1.67349,0.64215 3.87615,1.44981 4.89479,1.7948 1.01865,0.34499 3.2213,1.22588 4.89479,1.95754 1.67349,0.73166 3.22131,1.30069 3.43959,1.26452 0.34218,-0.0567 0.3985,-1.15912 0.40871,-7.99963 z m -3.01614,5.3948 c -1.09592,-0.4138 -2.15507,-1.31066 -2.15507,-1.82485 0,-0.84599 0.58971,-1.84652 1.08835,-1.84652 0.81922,0 1.77114,0.57103 1.92832,1.15674 0.21808,0.81264 0.19244,2.49612 -0.0401,2.63304 -0.10914,0.0643 -0.47881,0.011 -0.82149,-0.11841 z m -5.20697,-2.06519 c -0.88198,-0.36708 -1.22051,-0.98017 -1.13236,-2.05073 0.0789,-0.9583 0.13433,-1.01489 1.06978,-1.09244 0.87061,-0.0722 1.05011,0.0211 1.52719,0.79375 0.7484,1.21204 0.61881,2.44449 -0.2648,2.51826 -0.3638,0.0304 -0.90371,-0.0456 -1.19981,-0.16884 z m -4.81946,-1.86786 c -0.91259,-0.55642 -1.11955,-1.40459 -0.586,-2.40154 0.36419,-0.6805 1.68373,-0.67082 2.37194,0.0174 0.51846,0.51846 0.68744,1.66094 0.36857,2.4919 -0.21851,0.56943 -1.1176,0.52446 -2.15451,-0.10775 z m 9.18095,-1.39128 c -0.98979,-0.66485 -1.28699,-1.63384 -0.78743,-2.56728 0.40365,-0.75423 1.171,-0.67679 2.174,0.21939 0.79968,0.71452 0.83678,0.82485 0.59949,1.78313 -0.3067,1.23856 -0.78182,1.37367 -1.98606,0.56476 z m -13.561,-0.0934 c -0.65309,-0.35407 -0.73238,-0.53194 -0.66146,-1.48382 0.11144,-1.49575 0.70193,-1.83069 2.00173,-1.13541 1.0301,0.55101 1.30633,1.21215 1.00615,2.40816 -0.18951,0.75506 -1.17887,0.84406 -2.34642,0.21107 z m 9.34643,-1.19472 c -1.60013,-0.63844 -1.99988,-1.70879 -1.0596,-2.83717 0.43211,-0.51855 0.63406,-0.57946 1.24554,-0.37563 0.99646,0.33215 1.71008,1.60757 1.49662,2.67483 -0.17739,0.88697 -0.52738,0.99887 -1.68256,0.53797 z m -13.75426,-0.45642 c -1.23081,-0.66009 -1.51182,-1.15767 -1.12868,-1.99858 0.38102,-0.83624 1.46183,-1.14312 2.35066,-0.66743 0.90704,0.48543 1.22927,1.1911 1.0297,2.25495 -0.19938,1.06277 -0.82391,1.17679 -2.25168,0.41106 z m 8.78788,-1.39541 c -0.63666,-0.40773 -0.85989,-0.74438 -0.85989,-1.29682 0,-1.26681 0.19519,-1.485 1.22134,-1.3652 1.07275,0.12524 1.95097,1.24694 1.95267,2.49403 8.4e-4,0.61868 -0.10794,0.72693 -0.72662,0.72314 -0.40018,-0.002 -1.11455,-0.25227 -1.5875,-0.55515 z m -4.36562,-1.61514 c -3.63764,-2.108444 2.44739,-4.249365 2.44739,-1.00387 0,1.72346 -0.70617,2.01312 -2.44739,1.00387 z m -4.82731,-1.74851 c -1.26703,-0.87588 -1.39243,-1.30677 -0.65366,-2.24597 0.79836,-1.01495 2.13826,-0.98775 2.88326,0.0585 0.65155,0.91501 0.70532,1.94605 0.13141,2.51995 -0.58623,0.58623 -1.14604,0.50739 -2.36101,-0.33249 z m 12.8971,0.21085 C 0,0 0,0 -178.48199,90.65791 Z m 3.10885,-5.41567 C 0,0 0,0 -175.37314,85.24224 Z m -17.79177,-0.76407 C 0,0 0,0 -193.16491,84.47817 Z m 8.5219,-1.26774 c -1.10185,-4.42155 4.2037,-5.93775 5.67437,-1.62159 0.64756,1.90051 0.54987,2.6509 -0.47908,3.67985 -0.902,0.902017 -4.10075,2.333936 -5.19529,-2.05826 z m 10.85814,-1.43856 c -0.58251,-0.52626 -1.0591,-1.0993 -1.0591,-1.27342 0,-0.39901 1.38011,-1.7385 1.79121,-1.7385 0.57331,0 2.17754,1.63366 2.17754,2.21749 0,0.80303 -0.72401,1.75125 -1.33716,1.75125 -0.28237,0 -0.98999,-0.43057 -1.57249,-0.95682 z m -17.48845,-0.97071 c -0.49346,-0.33254 -0.93856,-0.81941 -0.98912,-1.08194 -0.1218,-0.63246 0.9558,-1.75302 1.6858,-1.75302 0.71586,0 1.97434,1.21464 1.97434,1.90555 0,1.54627 -1.15783,1.94915 -2.67102,0.92941 z m 18.67831,-3.10448 c -0.29104,-0.12875 -0.81347,-0.46109 -1.16096,-0.73854 -0.52531,-0.41944 -0.60269,-0.6557 -0.45913,-1.40185 0.30085,-1.56362 0.49743,-1.69808 1.6539,-1.13129 0.5594,0.27417 1.19735,0.82591 1.41768,1.22609 0.35644,0.64741 0.35685,0.80546 0.004,1.434 -0.46132,0.82108 -0.72815,0.93322 -1.45521,0.61159 z m -18.46903,-1.57674 c -0.68334,-0.43336 -1.24243,-0.91552 -1.24243,-1.07147 0,-0.7005 0.86044,-1.85143 1.50509,-2.01323 1.41232,-0.35447 2.92779,2.50891 1.88158,3.55512 -0.46728,0.46728 -0.77056,0.40074 -2.14424,-0.47042 z m 13.19083,-0.36153 c -0.72572,-0.95147 -0.84435,-1.74376 -0.3886,-2.59534 0.22236,-0.41549 0.444,-0.49565 0.99218,-0.35886 1.08766,0.2714 1.63191,0.90942 1.63191,1.91309 0,2.01237 -1.1029,2.52601 -2.23549,1.04111 z m -4.35808,-1.42616 c -0.6925,-0.56076 -0.8642,-2.15118 -0.30497,-2.825 0.47214,-0.5689 1.4256,-0.52991 1.97838,0.0809 0.32794,0.36237 0.43088,0.8569 0.37174,1.78593 -0.0738,1.15863 -0.14877,1.29259 -0.76381,1.36413 -0.37511,0.0436 -0.95171,-0.13907 -1.28134,-0.40598 z m -4.07104,-1.41892 c -0.91571,-0.48321 -0.99993,-0.61807 -0.92604,-1.48286 0.1008,-1.17979 0.69605,-1.61339 1.72034,-1.25317 0.92529,0.32541 1.49936,1.45911 1.26928,2.50665 -0.20404,0.92901 -0.6449,0.97801 -2.06358,0.22938 z m -5.02272,-1.50261 c -1.03109,-0.63674 -1.19695,-1.51537 -0.43849,-2.32271 0.82069,-0.87358 1.61251,-0.81355 2.60068,0.19716 0.94006,0.96152 0.98682,1.1887 0.41326,2.00757 -0.4984,0.71157 -1.53718,0.75916 -2.57545,0.11798 z m 22.30191,-4.57442 c 0,-4.0983 -0.14088,-4.78327 -1.0881,-5.2902 -0.67688,-0.36226 -12.9538,-4.59251 -18.44419,-6.35531 -4.31392,-1.38507 -5.44721,-1.56045 -5.70711,-0.88316 -0.20587,0.53651 -0.15103,6.60562 0.0692,7.65127 0.18891,0.89721 -0.58396,0.60097 12.99942,4.98278 3.8563,1.244 8.08302,2.61228 9.39271,3.04064 1.30969,0.42836 2.47055,0.79263 2.57969,0.80948 0.10914,0.0169 0.19843,-1.76312 0.19843,-3.9555 z m -4.18863,-0.26224 c -0.9213,-0.26633 -2.46911,-0.78359 -3.43958,-1.14945 -0.97047,-0.36587 -2.59793,-0.86916 -3.61658,-1.11842 -1.01864,-0.24927 -2.23903,-0.61309 -2.71198,-0.80849 -0.84676,-0.34984 -0.85989,-0.38181 -0.85989,-2.09254 V 59.6679 l 0.85989,0.1769 c 1.43114,0.29441 4.96094,1.52697 4.96094,1.73228 0,0.2203 1.32357,0.6334 1.71779,0.53614 0.14442,-0.0356 1.42334,0.21273 2.84204,0.55191 l 2.57946,0.61669 -6.8e-4,0.92604 c -9.1e-4,1.23622 -0.28843,2.91779 -0.4925,2.88043 -0.0901,-0.0165 -0.91761,-0.2479 -1.83891,-0.51423 z m -14.72907,-4.63547 c -1.01865,-0.35331 -2.48132,-0.89575 -3.25039,-1.20541 l -1.3983,-0.56302 0.1766,-1.61917 c 0.0971,-0.89054 0.22198,-1.67041 0.27745,-1.73304 0.15928,-0.17984 5.69967,1.28105 6.09143,1.60618 0.37772,0.31349 0.52126,4.21301 0.15373,4.17654 -0.10914,-0.0108 -1.03188,-0.30877 -2.05052,-0.66208 z m 20.75056,-10.32236 c 0.30399,-0.28447 0.31689,-0.48676 0.0661,-1.03708 -0.17133,-0.37603 -0.31151,-1.20278 -0.31151,-1.83722 V 47.5884 l 3.77032,-1.19738 c 2.07367,-0.65856 4.93209,-1.52555 6.35205,-1.92664 l 2.58173,-0.72926 0.88559,0.85834 c 0.72298,0.70074 1.01802,0.82511 1.60682,0.67733 1.55743,-0.39089 1.05092,-1.82629 -1.0733,-3.04165 -1.58194,-0.90509 -1.02257,-0.9631 -6.97946,0.72375 -5.48106,1.5521 -8.90099,2.69582 -9.21011,3.08011 -0.13958,0.17352 -0.33595,0.73221 -0.43638,1.24153 -0.33147,1.68106 -0.43818,1.85773 -1.35297,2.23995 -0.58823,0.24578 -0.90679,0.55814 -0.90679,0.88915 0,1.41657 3.80529,2.33798 5.00786,1.2126 z"
           id="path2"
           sodipodi:nodetypes="csssssssssccscsssssssssccsssssssssssssscssssssssscccsssssscsccscsssscssscssscccsssssssssssssssssssssssssssssssssssssssssssssssssssssssscssssssssssssssccssssssssssssssscsssscccssssssssssssscssssssssssssscssscsscccssssscsssscsssssccssssssscsscssssssssss" /><path
           style="fill:#00acd7;fill-opacity:1;stroke-width:0.160239"
           d="m -149.44073,82.742045 c -1.54865,0.24945 -3.16486,-0.168884 -4.31385,-1.116574 -0.44222,-0.364743 -0.65411,-0.6011 -0.97929,-1.092361 -0.57774,-0.872829 -0.92065,-1.956507 -0.952,-3.008497 -0.0478,-1.603531 0.5741,-3.356528 1.66117,-4.682663 0.5069,-0.61838 1.42682,-1.369061 2.12499,-1.734042 l 1.67886,-0.633865 c 1.85315,-0.436525 3.80698,0.182871 5.02588,1.593296 0.13639,0.15782 0.24466,0.318538 0.24061,0.357152 -0.003,0.03861 -0.0727,0.10682 -0.15243,0.151577 -0.0798,0.04475 -0.67011,0.381732 -1.31186,0.748844 -0.64174,0.367109 -1.19181,0.674176 -1.22239,0.682366 -0.0306,0.0082 -0.24131,-0.08972 -0.46831,-0.217557 -0.64005,-0.360462 -1.24639,-0.434498 -1.97318,-0.240928 -0.80055,0.21318 -1.40033,0.706254 -1.91845,1.577027 -0.33516,0.563278 -0.45627,0.973976 -0.47969,1.626672 -0.0147,0.407779 0.18339,1.270718 0.37237,1.622695 0.40133,0.74753 1.19287,1.265332 2.02284,1.323302 0.42564,0.02973 1.07159,-0.107388 1.47884,-0.313914 0.47741,-0.242117 0.85213,-0.603883 1.15747,-1.117475 0.14465,-0.243316 0.30994,-0.571009 0.36731,-0.728208 l 0.10432,-0.285814 -1.57925,0.423162 c -2.01497,0.539909 -1.89203,0.575338 -1.71755,-0.494905 0.15479,-0.949377 0.25748,-1.415702 0.33891,-1.538784 l 0.0794,-0.120036 2.53803,-0.68006 c 2.38029,-0.637801 2.53836,-0.684934 2.54388,-0.758441 0.057,-0.762407 0.20144,-1.378738 0.49988,-2.133353 0.44822,-1.133362 1.01348,-1.928512 1.90982,-2.686534 1.34522,-1.137621 3.36169,-1.866366 4.84207,-1.749895 1.40876,0.110843 2.73291,0.738822 3.5873,1.701286 0.47128,0.53088 0.76326,1.043995 1.04977,1.844783 0.48593,1.358119 0.46926,2.812113 -0.0482,4.200202 -0.19254,0.516543 -0.72824,1.451601 -1.09832,1.917084 -1.09404,1.37609 -2.93117,2.451356 -4.51638,2.643436 -2.17309,0.263309 -4.179,-0.593452 -5.30221,-2.264684 l -0.16249,-0.241764 -0.0599,0.251342 c -0.16097,0.675417 -0.53779,1.579955 -0.89606,2.150919 -0.4987,0.794777 -1.24356,1.551321 -2.03056,2.062422 -0.67607,0.439059 -1.7022,0.843721 -2.44139,0.962787 z m 12.1051,-6.422502 c 0.50831,-0.326393 0.8504,-0.698121 1.21045,-1.315375 0.28339,-0.485801 0.32873,-0.597019 0.40556,-0.994781 0.19344,-1.001431 -0.0255,-1.939156 -0.61413,-2.630753 -0.31414,-0.369079 -0.94204,-0.741749 -1.40173,-0.83195 -0.51842,-0.101729 -0.82245,-0.08279 -1.36559,0.0851 -0.40303,0.124563 -0.52164,0.181022 -0.87587,0.416872 -0.22534,0.150035 -0.51797,0.3848 -0.65026,0.521703 -0.42453,0.439286 -0.80682,1.196947 -0.90152,1.7867 -0.16619,1.035211 0.0428,1.889185 0.6225,2.542171 0.5503,0.619971 1.2772,0.918453 2.15932,0.886663 0.3945,-0.01422 1.03862,-0.227063 1.41127,-0.466346 z m -21.23824,3.173905 c -0.8857,0.23072 -1.61284,0.410209 -1.61589,0.398868 -0.0231,-0.08599 0.14287,-0.546574 0.21014,-0.583343 0.0453,-0.02476 0.76559,-0.222587 1.60064,-0.439606 l 1.51828,-0.394594 0.0709,0.214975 c 0.0788,0.238577 0.0536,0.349768 -0.0841,0.370619 -0.0493,0.0075 -0.81441,0.202361 -1.7001,0.433086 z m -5.40154,-0.330306 -0.0564,-0.259216 3.57025,-0.967858 c 2.94513,-0.798403 3.5728,-0.958324 3.58481,-0.913501 0.0408,0.152546 -0.0181,0.466534 -0.096,0.511556 -0.0458,0.02646 -1.62743,0.462121 -3.51478,0.968163 l -3.43151,0.920131 z m 1.67008,-1.700116 c -0.0468,-0.04402 0.17725,-0.541311 0.2759,-0.612508 0.12643,-0.09124 5.47499,-1.522223 5.52247,-1.477501 0.0381,0.03593 -0.0868,0.446781 -0.17096,0.561908 -0.0387,0.05307 -0.66593,0.2333 -2.82431,0.811638 -1.52597,0.408883 -2.78737,0.731294 -2.8031,0.716473 z"
           id="path3"
           sodipodi:nodetypes="sssssccsssssscssssssscssscscssssssssscssssssssscsssssssssccssssccssscccsssssss" /><g
           id="g13"><g
             id="g12"><path
               d="m -186.68195,77.429399 c -0.49346,-0.33254 -0.93856,-0.81941 -0.98912,-1.08194 -0.1218,-0.63246 0.9558,-1.75302 1.6858,-1.75302 0.71586,0 1.97434,1.21464 1.97434,1.90555 0,1.54627 -1.15783,1.94915 -2.67102,0.92941 z"
               style="fill:#003b45;fill-opacity:1"
               id="path1-3" /><path
               d="m -182.32294,78.373515 c -0.49346,-0.33254 -0.93856,-0.81941 -0.98912,-1.08194 -0.1218,-0.63246 0.9558,-1.75302 1.6858,-1.75302 0.71586,0 1.97434,1.21464 1.97434,1.90555 0,1.54627 -1.15783,1.94915 -2.67102,0.92941 z"
               style="fill:#003b45;fill-opacity:1"
               id="path1-6" /><path
               d="m -177.57852,80.208319 c -0.49346,-0.33254 -0.93856,-0.81941 -0.98912,-1.08194 -0.1218,-0.63246 0.9558,-1.75302 1.6858,-1.75302 0.71586,0 1.97434,1.21464 1.97434,1.90555 0,1.54627 -1.15783,1.94915 -2.67102,0.92941 z"
               style="fill:#003b45;fill-opacity:1"
               id="path1-61" /><path
               d="m -191.09956,85.536875 c -0.49346,-0.33254 -0.93856,-0.81941 -0.98912,-1.08194 -0.1218,-0.63246 0.9558,-1.75302 1.6858,-1.75302 0.71586,0 1.97434,1.21464 1.97434,1.90555 0,1.54627 -1.15783,1.94915 -2.67102,0.92941 z"
               style="fill:#003b45;fill-opacity:1"
               id="path1" /><path
               d="m -186.4009,87.640822 c -0.49346,-0.33254 -0.93856,-0.81941 -0.98912,-1.08194 -0.1218,-0.63246 0.9558,-1.75302 1.6858,-1.75302 0.71586,0 1.97434,1.21464 1.97434,1.90555 0,1.54627 -1.15783,1.94915 -2.67102,0.92941 z"
               style="fill:#003b45;fill-opacity:1"
               id="path4"
               inkscape:transform-center-x="3.5589645"
               inkscape:transform-center-y="-1.7140568" /><path
               d="m -181.73247,89.00594 c -0.49346,-0.33254 -0.93856,-0.81941 -0.98912,-1.08194 -0.1218,-0.63246 0.9558,-1.75302 1.6858,-1.75302 0.71586,0 1.97434,1.21464 1.97434,1.90555 0,1.54627 -1.15783,1.94915 -2.67102,0.92941 z"
               style="fill:#003b45;fill-opacity:1"
               id="path5"
               inkscape:transform-center-x="3.5589645"
               inkscape:transform-center-y="-1.7140568" /><path
               d="m -177.11359,90.351098 c -0.49346,-0.33254 -0.93856,-0.81941 -0.98912,-1.08194 -0.1218,-0.63246 0.9558,-1.75302 1.6858,-1.75302 0.71586,0 1.97434,1.21464 1.97434,1.90555 0,1.54627 -1.15783,1.94915 -2.67102,0.92941 z"
               style="fill:#003b45;fill-opacity:1"
               id="path6"
               inkscape:transform-center-x="3.5589645"
               inkscape:transform-center-y="-1.7140568" /><path
               d="m -172.84409,90.84825 c -0.49346,-0.33254 -0.93856,-0.81941 -0.98912,-1.08194 -0.1218,-0.63246 0.9558,-1.75302 1.6858,-1.75302 0.71586,0 1.97434,1.21464 1.97434,1.90555 0,1.54627 -1.15783,1.94915 -2.67102,0.92941 z"
               style="fill:#003b45;fill-opacity:1"
               id="path7"
               inkscape:transform-center-x="3.5589645"
               inkscape:transform-center-y="-1.7140568" /><path
               d="m -177.09444,85.547656 c -0.49346,-0.33254 -0.93856,-0.81941 -0.98912,-1.08194 -0.1218,-0.63246 0.9558,-1.75302 1.6858,-1.75302 0.71586,0 1.97434,1.21464 1.97434,1.90555 0,1.54627 -1.15783,1.94915 -2.67102,0.92941 z"
               style="fill:#003b45;fill-opacity:1"
               id="path8"
               inkscape:transform-center-x="3.5589645"
               inkscape:transform-center-y="-1.7140568" /><path
               d="m -172.95951,85.794221 c -0.49346,-0.33254 -0.93856,-0.81941 -0.98912,-1.08194 -0.1218,-0.63246 0.9558,-1.75302 1.6858,-1.75302 0.71586,0 1.97434,1.21464 1.97434,1.90555 0,1.54627 -1.15783,1.94915 -2.67102,0.92941 z"
               style="fill:#003b45;fill-opacity:1"
               id="path9"
               inkscape:transform-center-x="3.5589645"
               inkscape:transform-center-y="-1.7140568" /><path
               d="m -187.52414,82.094029 c -0.49346,-0.33254 -0.93856,-0.81941 -0.98912,-1.08194 -0.1218,-0.63246 0.9558,-1.75302 1.6858,-1.75302 0.71586,0 1.97434,1.21464 1.97434,1.90555 0,1.54627 -1.15783,1.94915 -2.67102,0.92941 z"
               style="fill:#003b45;fill-opacity:1"
               id="path10"
               inkscape:transform-center-x="3.5589645"
               inkscape:transform-center-y="-1.7140568" /></g></g></g></g></g></svg>
